<mxfile host="app.diagrams.net" agent="Mozilla/5.0 (Windows NT 10.0; Win64; x64) AppleWebKit/537.36 (KHTML, like Gecko) Chrome/137.0.0.0 Safari/537.36" version="27.0.9" pages="4">
  <diagram name="Page-1" id="c9db0220-8083-56f3-ca83-edcdcd058819">
    <mxGraphModel dx="1408" dy="748" grid="1" gridSize="10" guides="1" tooltips="1" connect="1" arrows="1" fold="1" page="1" pageScale="1.5" pageWidth="826" pageHeight="1169" background="none" math="0" shadow="0">
      <root>
        <mxCell id="0" style=";html=1;" />
        <mxCell id="1" style=";html=1;" parent="0" />
        <mxCell id="3d76a8aef4d5c911-1" value="" style="html=1;shadow=0;dashed=0;shape=mxgraph.bootstrap.rect;fillColor=#222222;strokeColor=none;whiteSpace=wrap;rounded=0;fontSize=12;fontColor=#000000;align=center;" parent="1" vertex="1">
          <mxGeometry x="40" y="70" width="1150" height="40" as="geometry" />
        </mxCell>
        <mxCell id="3d76a8aef4d5c911-2" value="Company" style="html=1;shadow=0;dashed=0;fillColor=none;strokeColor=none;shape=mxgraph.bootstrap.rect;fontColor=#999999;fontSize=14;whiteSpace=wrap;" parent="3d76a8aef4d5c911-1" vertex="1">
          <mxGeometry width="115" height="40" as="geometry" />
        </mxCell>
        <mxCell id="3d76a8aef4d5c911-3" value="People" style="html=1;shadow=0;dashed=0;shape=mxgraph.bootstrap.rect;fillColor=#000000;strokeColor=none;fontColor=#ffffff;spacingRight=30;whiteSpace=wrap;" parent="3d76a8aef4d5c911-1" vertex="1">
          <mxGeometry x="115" width="129.375" height="40" as="geometry" />
        </mxCell>
        <mxCell id="3d76a8aef4d5c911-4" value="84" style="html=1;shadow=0;dashed=0;shape=mxgraph.bootstrap.rrect;rSize=8;fillColor=#ff0000;strokeColor=none;fontColor=#ffffff;whiteSpace=wrap;" parent="3d76a8aef4d5c911-3" vertex="1">
          <mxGeometry x="1" y="0.5" width="25" height="16" relative="1" as="geometry">
            <mxPoint x="-30" y="-8" as="offset" />
          </mxGeometry>
        </mxCell>
        <mxCell id="3d76a8aef4d5c911-5" value="Violations" style="html=1;shadow=0;dashed=0;fillColor=none;strokeColor=none;shape=mxgraph.bootstrap.rect;fontColor=#999999;spacingRight=30;whiteSpace=wrap;" parent="3d76a8aef4d5c911-1" vertex="1">
          <mxGeometry x="244.375" width="158.125" height="40" as="geometry" />
        </mxCell>
        <mxCell id="3d76a8aef4d5c911-6" value="42" style="html=1;shadow=0;dashed=0;shape=mxgraph.bootstrap.rrect;rSize=8;fillColor=#ff0000;strokeColor=none;fontColor=#ffffff;whiteSpace=wrap;" parent="3d76a8aef4d5c911-5" vertex="1">
          <mxGeometry x="1" y="0.5" width="25" height="16" relative="1" as="geometry">
            <mxPoint x="-30" y="-8" as="offset" />
          </mxGeometry>
        </mxCell>
        <mxCell id="3d76a8aef4d5c911-7" value="Statistics" style="html=1;shadow=0;dashed=0;fillColor=none;strokeColor=none;shape=mxgraph.bootstrap.rect;fontColor=#999999;whiteSpace=wrap;" parent="3d76a8aef4d5c911-1" vertex="1">
          <mxGeometry x="402.5" width="115" height="40" as="geometry" />
        </mxCell>
        <mxCell id="3d76a8aef4d5c911-8" value="Settings" style="html=1;shadow=0;dashed=0;fillColor=none;strokeColor=none;shape=mxgraph.bootstrap.rect;fontColor=#999999;whiteSpace=wrap;" parent="3d76a8aef4d5c911-1" vertex="1">
          <mxGeometry x="517.5" width="100.625" height="40" as="geometry" />
        </mxCell>
        <mxCell id="3d76a8aef4d5c911-9" value="Profile" style="html=1;shadow=0;dashed=0;fillColor=none;strokeColor=none;shape=mxgraph.bootstrap.rect;fontColor=#999999;whiteSpace=wrap;" parent="3d76a8aef4d5c911-1" vertex="1">
          <mxGeometry x="948.75" width="100.625" height="40" as="geometry" />
        </mxCell>
        <mxCell id="3d76a8aef4d5c911-10" value="Log Out" style="html=1;shadow=0;dashed=0;fillColor=none;strokeColor=none;shape=mxgraph.bootstrap.rect;fontColor=#999999;whiteSpace=wrap;" parent="3d76a8aef4d5c911-1" vertex="1">
          <mxGeometry x="1049.375" width="100.625" height="40" as="geometry" />
        </mxCell>
        <mxCell id="3d76a8aef4d5c911-11" value="" style="html=1;shadow=0;dashed=0;shape=mxgraph.bootstrap.rrect;rSize=5;strokeColor=#dddddd;rounded=0;fontSize=12;align=center;" parent="1" vertex="1">
          <mxGeometry x="860" y="150" width="330" height="400" as="geometry" />
        </mxCell>
        <mxCell id="3d76a8aef4d5c911-12" value="320x200" style="shape=rect;fontSize=24;fillColor=#f0f0f0;strokeColor=none;fontColor=#999999;whiteSpace=wrap;" parent="3d76a8aef4d5c911-11" vertex="1">
          <mxGeometry x="5" y="5" width="320" height="200" as="geometry" />
        </mxCell>
        <mxCell id="3d76a8aef4d5c911-13" value="Thumbnail label" style="html=1;shadow=0;dashed=0;shape=mxgraph.bootstrap.anchor;fontSize=26;align=left;whiteSpace=wrap;" parent="3d76a8aef4d5c911-11" vertex="1">
          <mxGeometry x="15" y="220" width="300" height="40" as="geometry" />
        </mxCell>
        <mxCell id="3d76a8aef4d5c911-14" value="Cras justo odio, dapibus ac facilisis in, egestas eget quam. Donec id elit non mi porta gravida at eget metus. Nullam id dolor id nibh ultricies vehicula ut id elit." style="html=1;shadow=0;dashed=0;shape=mxgraph.bootstrap.anchor;strokeColor=#dddddd;whiteSpace=wrap;align=left;verticalAlign=top;fontSize=14;whiteSpace=wrap;" parent="3d76a8aef4d5c911-11" vertex="1">
          <mxGeometry x="15" y="260" width="300" height="80" as="geometry" />
        </mxCell>
        <mxCell id="3d76a8aef4d5c911-15" value="Button" style="html=1;shadow=0;dashed=0;shape=mxgraph.bootstrap.rrect;rSize=5;fontSize=16;fillColor=#3D8BCD;strokeColor=none;fontColor=#ffffff;whiteSpace=wrap;" parent="3d76a8aef4d5c911-11" vertex="1">
          <mxGeometry y="1" width="80" height="40" relative="1" as="geometry">
            <mxPoint x="15" y="-60" as="offset" />
          </mxGeometry>
        </mxCell>
        <mxCell id="3d76a8aef4d5c911-16" value="Button" style="html=1;shadow=0;dashed=0;shape=mxgraph.bootstrap.rrect;rSize=5;fontSize=16;strokeColor=#dddddd;whiteSpace=wrap;" parent="3d76a8aef4d5c911-11" vertex="1">
          <mxGeometry y="1" width="80" height="40" relative="1" as="geometry">
            <mxPoint x="100" y="-60" as="offset" />
          </mxGeometry>
        </mxCell>
        <mxCell id="3d76a8aef4d5c911-17" value="Template name" style="html=1;shadow=0;dashed=0;shape=mxgraph.bootstrap.rect;strokeColor=none;fillColor=none;fontColor=#999999;align=left;spacingLeft=5;whiteSpace=wrap;rounded=0;" parent="1" vertex="1">
          <mxGeometry x="40" y="130" width="200" height="20" as="geometry" />
        </mxCell>
        <mxCell id="3d76a8aef4d5c911-18" value="Uncompleted Profile" style="html=1;shadow=0;dashed=0;shape=mxgraph.bootstrap.rrect;rSize=5;strokeColor=#dddddd;;align=left;spacingLeft=10;fontSize=16;whiteSpace=wrap;rounded=0;" parent="1" vertex="1">
          <mxGeometry x="40" y="150" width="800" height="40" as="geometry" />
        </mxCell>
        <mxCell id="3d76a8aef4d5c911-19" value="Subject" style="html=1;shadow=0;dashed=0;shape=mxgraph.bootstrap.rect;strokeColor=none;fillColor=none;fontColor=#999999;align=left;spacingLeft=5;whiteSpace=wrap;rounded=0;" parent="1" vertex="1">
          <mxGeometry x="40" y="210" width="200" height="20" as="geometry" />
        </mxCell>
        <mxCell id="3d76a8aef4d5c911-20" value="Hello, %USER_FULL_NAME%" style="html=1;shadow=0;dashed=0;shape=mxgraph.bootstrap.rrect;rSize=5;strokeColor=#dddddd;align=left;spacingLeft=10;fontSize=16;whiteSpace=wrap;rounded=0;" parent="1" vertex="1">
          <mxGeometry x="40" y="230" width="800" height="40" as="geometry" />
        </mxCell>
        <mxCell id="3d76a8aef4d5c911-21" value="Insert System Variable" style="html=1;shadow=0;dashed=0;shape=mxgraph.bootstrap.rect;strokeColor=none;fillColor=none;align=right;fontSize=10;whiteSpace=wrap;rounded=0;" parent="1" vertex="1">
          <mxGeometry x="690" y="210" width="120" height="20" as="geometry" />
        </mxCell>
        <mxCell id="3d76a8aef4d5c911-22" value="" style="shape=triangle;strokeColor=none;fillColor=#000000;direction=south;rounded=0;shadow=1;fontSize=12;fontColor=#000000;align=center;html=1;" parent="1" vertex="1">
          <mxGeometry x="812" y="217" width="8" height="4" as="geometry" />
        </mxCell>
        <mxCell id="3d76a8aef4d5c911-23" value="Message" style="html=1;shadow=0;dashed=0;shape=mxgraph.bootstrap.rect;strokeColor=none;fillColor=none;fontColor=#999999;align=left;spacingLeft=5;whiteSpace=wrap;rounded=0;" parent="1" vertex="1">
          <mxGeometry x="40" y="290" width="200" height="20" as="geometry" />
        </mxCell>
        <mxCell id="3d76a8aef4d5c911-24" value="Hello %USER_FULL_NAME%!&#xa;&#xa;At vero eos et accusamus et iusto odio dignissimos ducimus, qui blanditiis praesentium voluptatum deleniti atque corrupti, quosdolores et quas molestias excepturi sint, obcaecati cupiditate non provident, similique sunt in culpa, qui officia deserunt mollitiaanimi, id est laborum et dolorum fuga. Et harum quidem rerum facilis est et expedita distinctio. Nam libero tempore, cum solutanobis est eligendi optio, cumque nihil impedit, quo minus id, quod maxime placeat, facere possimus, omnis voluptas assumendaest, omnis dolor repellendus." style="html=1;shadow=0;dashed=0;shape=mxgraph.bootstrap.rrect;rSize=5;fontSize=12;strokeColor=#dddddd;align=left;spacing=10;verticalAlign=top;whiteSpace=wrap;rounded=0;" parent="1" vertex="1">
          <mxGeometry x="40" y="310" width="800" height="240" as="geometry" />
        </mxCell>
        <mxCell id="3d76a8aef4d5c911-25" value="Insert System Variable" style="html=1;shadow=0;dashed=0;shape=mxgraph.bootstrap.rect;strokeColor=none;fillColor=none;align=right;fontSize=10;whiteSpace=wrap;rounded=0;" parent="1" vertex="1">
          <mxGeometry x="690" y="290" width="120" height="20" as="geometry" />
        </mxCell>
        <mxCell id="3d76a8aef4d5c911-26" value="" style="shape=triangle;strokeColor=none;fillColor=#000000;direction=south;rounded=0;shadow=1;fontSize=12;fontColor=#000000;align=center;html=1;" parent="1" vertex="1">
          <mxGeometry x="812" y="297" width="8" height="4" as="geometry" />
        </mxCell>
        <mxCell id="3d76a8aef4d5c911-27" value="%USER_FULL_NAME%&#xa;%USER_EMAIL%&#xa;%USER_PROFILE_COMPLETENESS%&#xa;%USER_NUM_SUCCESS_TRADES%&#xa;%USER_FULL_NAME%&#xa;%USER_EMAIL%&#xa;%USER_PROFILE_COMPLETENESS%&#xa;%USER_NUM_SUCCESS_SELLS%" style="html=1;shadow=0;dashed=0;shape=mxgraph.bootstrap.rrect;fontSize=12;rSize=2;strokeColor=#dddddd;align=left;verticalAlign=top;spacing=10;shadow=1;whiteSpace=wrap;rounded=0;" parent="1" vertex="1">
          <mxGeometry x="590" y="305" width="240" height="140" as="geometry" />
        </mxCell>
        <mxCell id="3d76a8aef4d5c911-28" value="Message Type" style="html=1;shadow=0;dashed=0;shape=mxgraph.bootstrap.rect;strokeColor=none;fillColor=none;fontColor=#999999;align=left;spacingLeft=5;whiteSpace=wrap;rounded=0;" parent="1" vertex="1">
          <mxGeometry x="40" y="570" width="200" height="20" as="geometry" />
        </mxCell>
        <mxCell id="3d76a8aef4d5c911-29" value="Email + Push" style="html=1;shadow=0;dashed=0;shape=mxgraph.bootstrap.rrect;rSize=5;strokeColor=#dddddd;align=left;spacingLeft=10;fontSize=16;whiteSpace=wrap;rounded=0;" parent="1" vertex="1">
          <mxGeometry x="40" y="590" width="390" height="40" as="geometry" />
        </mxCell>
        <mxCell id="3d76a8aef4d5c911-30" value="" style="shape=triangle;strokeColor=none;fillColor=#000000;direction=south;rounded=0;shadow=1;fontSize=12;fontColor=#000000;align=center;html=1;" parent="1" vertex="1">
          <mxGeometry x="410" y="607" width="10" height="5" as="geometry" />
        </mxCell>
        <mxCell id="3d76a8aef4d5c911-31" value="Tap target" style="html=1;shadow=0;dashed=0;shape=mxgraph.bootstrap.rect;strokeColor=none;fillColor=none;fontColor=#999999;align=left;spacingLeft=5;whiteSpace=wrap;rounded=0;" parent="1" vertex="1">
          <mxGeometry x="450" y="570" width="200" height="20" as="geometry" />
        </mxCell>
        <mxCell id="3d76a8aef4d5c911-32" value="Profile Screen" style="html=1;shadow=0;dashed=0;shape=mxgraph.bootstrap.rrect;rSize=5;strokeColor=#dddddd;align=left;spacingLeft=10;fontSize=16;whiteSpace=wrap;rounded=0;" parent="1" vertex="1">
          <mxGeometry x="450" y="590" width="390" height="40" as="geometry" />
        </mxCell>
        <mxCell id="3d76a8aef4d5c911-33" value="" style="shape=triangle;strokeColor=none;fillColor=#000000;direction=south;rounded=0;shadow=1;fontSize=12;fontColor=#000000;align=center;html=1;" parent="1" vertex="1">
          <mxGeometry x="820" y="607" width="10" height="5" as="geometry" />
        </mxCell>
        <mxCell id="3d76a8aef4d5c911-34" value="Send to Group" style="html=1;shadow=0;dashed=0;shape=mxgraph.bootstrap.rect;strokeColor=none;fillColor=none;fontColor=#999999;align=left;spacingLeft=5;whiteSpace=wrap;rounded=0;" parent="1" vertex="1">
          <mxGeometry x="40" y="650" width="200" height="20" as="geometry" />
        </mxCell>
        <mxCell id="3d76a8aef4d5c911-35" value="Top Management" style="html=1;shadow=0;dashed=0;shape=mxgraph.bootstrap.checkbox;fontSize=12;strokeColor=#999999;align=left;labelPosition=right;spacingLeft=5;rounded=0;" parent="1" vertex="1">
          <mxGeometry x="50" y="673" width="14" height="14" as="geometry" />
        </mxCell>
        <mxCell id="3d76a8aef4d5c911-36" value="Marketing Department" style="html=1;shadow=0;dashed=0;shape=mxgraph.bootstrap.rrect;fontSize=12;rSize=3;strokeColor=#999999;align=left;labelPosition=right;spacingLeft=5;rounded=0;" parent="1" vertex="1">
          <mxGeometry x="50" y="693" width="14" height="14" as="geometry" />
        </mxCell>
        <mxCell id="3d76a8aef4d5c911-37" value="Design Department" style="html=1;shadow=0;dashed=0;shape=mxgraph.bootstrap.checkbox;fontSize=12;strokeColor=#999999;align=left;labelPosition=right;spacingLeft=5;rounded=0;" parent="1" vertex="1">
          <mxGeometry x="50" y="713" width="14" height="14" as="geometry" />
        </mxCell>
        <mxCell id="3d76a8aef4d5c911-38" value="Financial Department" style="html=1;shadow=0;dashed=0;shape=mxgraph.bootstrap.rrect;fontSize=12;rSize=3;strokeColor=#999999;align=left;labelPosition=right;spacingLeft=5;rounded=0;" parent="1" vertex="1">
          <mxGeometry x="50" y="733" width="14" height="14" as="geometry" />
        </mxCell>
        <mxCell id="3d76a8aef4d5c911-39" value="Supply Department" style="html=1;shadow=0;dashed=0;shape=mxgraph.bootstrap.rrect;fontSize=12;rSize=3;strokeColor=#999999;align=left;labelPosition=right;spacingLeft=5;rounded=0;" parent="1" vertex="1">
          <mxGeometry x="50" y="753" width="14" height="14" as="geometry" />
        </mxCell>
        <mxCell id="3d76a8aef4d5c911-40" value="Set Type" style="html=1;shadow=0;dashed=0;shape=mxgraph.bootstrap.rect;strokeColor=none;fillColor=none;fontColor=#999999;align=left;spacingLeft=5;whiteSpace=wrap;rounded=0;" parent="1" vertex="1">
          <mxGeometry x="450" y="650" width="200" height="20" as="geometry" />
        </mxCell>
        <mxCell id="3d76a8aef4d5c911-41" value="" style="shape=ellipse;dashed=0;strokeColor=#999999;fillColor=#ffffff;html=1;rounded=0;shadow=1;fontSize=12;fontColor=#000000;align=center;" parent="1" vertex="1">
          <mxGeometry x="460" y="673" width="14" height="14" as="geometry" />
        </mxCell>
        <mxCell id="3d76a8aef4d5c911-42" value="News" style="html=1;shadow=0;dashed=0;shape=mxgraph.bootstrap.rrect;align=center;rSize=3;strokeColor=none;fillColor=#58B957;fontColor=#ffffff;fontStyle=1;fontSize=10;whiteSpace=wrap;rounded=0;" parent="1" vertex="1">
          <mxGeometry x="480" y="673" width="40" height="14" as="geometry" />
        </mxCell>
        <mxCell id="3d76a8aef4d5c911-43" value="" style="html=1;shadow=0;dashed=0;shape=mxgraph.bootstrap.radioButton;strokeColor=#999999;fillColor=#ffffff;rounded=0;fontSize=12;fontColor=#000000;align=center;" parent="1" vertex="1">
          <mxGeometry x="460" y="693" width="14" height="14" as="geometry" />
        </mxCell>
        <mxCell id="3d76a8aef4d5c911-44" value="Reports" style="html=1;shadow=0;dashed=0;shape=mxgraph.bootstrap.rrect;align=center;rSize=3;strokeColor=none;fillColor=#55BFE0;fontColor=#ffffff;fontStyle=1;fontSize=10;whiteSpace=wrap;rounded=0;" parent="1" vertex="1">
          <mxGeometry x="480" y="693" width="50" height="14" as="geometry" />
        </mxCell>
        <mxCell id="3d76a8aef4d5c911-45" value="" style="shape=ellipse;dashed=0;strokeColor=#999999;fillColor=#ffffff;html=1;rounded=0;shadow=1;fontSize=12;fontColor=#000000;align=center;" parent="1" vertex="1">
          <mxGeometry x="460" y="713" width="14" height="14" as="geometry" />
        </mxCell>
        <mxCell id="3d76a8aef4d5c911-46" value="Documents" style="html=1;shadow=0;dashed=0;shape=mxgraph.bootstrap.rrect;align=center;rSize=3;strokeColor=none;fillColor=#EFAC43;fontColor=#ffffff;fontStyle=1;fontSize=10;whiteSpace=wrap;rounded=0;" parent="1" vertex="1">
          <mxGeometry x="480" y="713" width="70" height="14" as="geometry" />
        </mxCell>
        <mxCell id="3d76a8aef4d5c911-47" value="" style="shape=ellipse;dashed=0;strokeColor=#999999;fillColor=#ffffff;html=1;rounded=0;shadow=1;fontSize=12;fontColor=#000000;align=center;" parent="1" vertex="1">
          <mxGeometry x="460" y="733" width="14" height="14" as="geometry" />
        </mxCell>
        <mxCell id="3d76a8aef4d5c911-48" value="Media" style="html=1;shadow=0;dashed=0;shape=mxgraph.bootstrap.rrect;align=center;rSize=3;strokeColor=none;fillColor=#3D8BCD;fontColor=#ffffff;fontStyle=1;fontSize=10;whiteSpace=wrap;rounded=0;" parent="1" vertex="1">
          <mxGeometry x="480" y="733" width="40" height="14" as="geometry" />
        </mxCell>
        <mxCell id="3d76a8aef4d5c911-49" value="" style="shape=ellipse;dashed=0;strokeColor=#999999;fillColor=#ffffff;html=1;rounded=0;shadow=1;fontSize=12;fontColor=#000000;align=center;" parent="1" vertex="1">
          <mxGeometry x="460" y="753" width="14" height="14" as="geometry" />
        </mxCell>
        <mxCell id="3d76a8aef4d5c911-50" value="Text" style="html=1;shadow=0;dashed=0;shape=mxgraph.bootstrap.rrect;align=center;rSize=3;strokeColor=none;fillColor=#999999;fontColor=#ffffff;fontStyle=1;fontSize=10;whiteSpace=wrap;rounded=0;" parent="1" vertex="1">
          <mxGeometry x="480" y="753" width="30" height="14" as="geometry" />
        </mxCell>
        <mxCell id="3d76a8aef4d5c911-51" value="Save Template" style="html=1;shadow=0;dashed=0;shape=mxgraph.bootstrap.rrect;align=center;rSize=5;strokeColor=none;fillColor=#3D8BCD;fontColor=#ffffff;fontSize=16;whiteSpace=wrap;rounded=0;" parent="1" vertex="1">
          <mxGeometry x="40" y="810" width="150" height="40" as="geometry" />
        </mxCell>
        <mxCell id="3d76a8aef4d5c911-52" value="Cancel" style="html=1;shadow=0;dashed=0;shape=mxgraph.bootstrap.rrect;align=center;rSize=5;strokeColor=#dddddd;fontSize=16;whiteSpace=wrap;rounded=0;" parent="1" vertex="1">
          <mxGeometry x="210" y="810" width="100" height="40" as="geometry" />
        </mxCell>
        <mxCell id="3d76a8aef4d5c911-53" value="Delete Template" style="html=1;shadow=0;dashed=0;shape=mxgraph.bootstrap.rrect;align=center;rSize=5;strokeColor=none;fillColor=#DB524C;fontColor=#ffffff;fontSize=16;whiteSpace=wrap;rounded=0;" parent="1" vertex="1">
          <mxGeometry x="670" y="810" width="170" height="40" as="geometry" />
        </mxCell>
        <mxCell id="3d76a8aef4d5c911-54" value="" style="html=1;shadow=0;dashed=0;shape=mxgraph.bootstrap.rrect;rSize=5;strokeColor=#dddddd;rounded=0;fontSize=12;align=center;" parent="1" vertex="1">
          <mxGeometry x="860" y="580" width="330" height="400" as="geometry" />
        </mxCell>
        <mxCell id="3d76a8aef4d5c911-55" value="320x200" style="shape=rect;fontSize=24;fillColor=#f0f0f0;strokeColor=none;fontColor=#999999;whiteSpace=wrap;" parent="3d76a8aef4d5c911-54" vertex="1">
          <mxGeometry x="5" y="5" width="320" height="200" as="geometry" />
        </mxCell>
        <mxCell id="3d76a8aef4d5c911-56" value="Thumbnail label" style="html=1;shadow=0;dashed=0;shape=mxgraph.bootstrap.anchor;fontSize=26;align=left;whiteSpace=wrap;" parent="3d76a8aef4d5c911-54" vertex="1">
          <mxGeometry x="15" y="220" width="300" height="40" as="geometry" />
        </mxCell>
        <mxCell id="3d76a8aef4d5c911-57" value="Cras justo odio, dapibus ac facilisis in, egestas eget quam. Donec id elit non mi porta gravida at eget metus. Nullam id dolor id nibh ultricies vehicula ut id elit." style="html=1;shadow=0;dashed=0;shape=mxgraph.bootstrap.anchor;strokeColor=#dddddd;whiteSpace=wrap;align=left;verticalAlign=top;fontSize=14;whiteSpace=wrap;" parent="3d76a8aef4d5c911-54" vertex="1">
          <mxGeometry x="15" y="260" width="300" height="80" as="geometry" />
        </mxCell>
        <mxCell id="3d76a8aef4d5c911-58" value="Button" style="html=1;shadow=0;dashed=0;shape=mxgraph.bootstrap.rrect;rSize=5;fontSize=16;fillColor=#3D8BCD;strokeColor=none;fontColor=#ffffff;whiteSpace=wrap;" parent="3d76a8aef4d5c911-54" vertex="1">
          <mxGeometry y="1" width="80" height="40" relative="1" as="geometry">
            <mxPoint x="15" y="-60" as="offset" />
          </mxGeometry>
        </mxCell>
        <mxCell id="3d76a8aef4d5c911-59" value="Button" style="html=1;shadow=0;dashed=0;shape=mxgraph.bootstrap.rrect;rSize=5;fontSize=16;strokeColor=#dddddd;whiteSpace=wrap;" parent="3d76a8aef4d5c911-54" vertex="1">
          <mxGeometry y="1" width="80" height="40" relative="1" as="geometry">
            <mxPoint x="100" y="-60" as="offset" />
          </mxGeometry>
        </mxCell>
      </root>
    </mxGraphModel>
  </diagram>
  <diagram id="FU8lBgzXBYsJgkfCLfBr" name="検索画面">
    <mxGraphModel dx="4410" dy="2483" grid="1" gridSize="10" guides="1" tooltips="1" connect="1" arrows="1" fold="1" page="1" pageScale="1" pageWidth="827" pageHeight="1169" math="0" shadow="0">
      <root>
        <mxCell id="0" />
        <mxCell id="1" parent="0" />
        <mxCell id="3NQUQ22dUql_FlJT8KjB-1" value="" style="rounded=0;whiteSpace=wrap;html=1;" vertex="1" parent="1">
          <mxGeometry x="80" y="70" width="1920" height="70" as="geometry" />
        </mxCell>
        <mxCell id="3NQUQ22dUql_FlJT8KjB-2" value="" style="rounded=0;whiteSpace=wrap;html=1;" vertex="1" parent="1">
          <mxGeometry x="80" y="140" width="1920" height="980" as="geometry" />
        </mxCell>
        <mxCell id="3NQUQ22dUql_FlJT8KjB-3" value="" style="rounded=0;whiteSpace=wrap;html=1;" vertex="1" parent="1">
          <mxGeometry x="80" y="140" width="450" height="980" as="geometry" />
        </mxCell>
        <mxCell id="3NQUQ22dUql_FlJT8KjB-6" value="外観モードを変更" style="rounded=1;whiteSpace=wrap;html=1;arcSize=50;strokeWidth=1;whiteSpace=wrap;align=center;verticalAlign=middle;spacingLeft=0;fontStyle=0;fontSize=32;spacing=10;" vertex="1" parent="1">
          <mxGeometry x="95" y="980" width="420" height="50" as="geometry" />
        </mxCell>
        <mxCell id="3NQUQ22dUql_FlJT8KjB-7" value="OSSライセンスを表示" style="rounded=1;whiteSpace=wrap;html=1;arcSize=50;strokeWidth=1;whiteSpace=wrap;align=center;verticalAlign=middle;spacingLeft=0;fontStyle=0;fontSize=32;spacing=10;" vertex="1" parent="1">
          <mxGeometry x="95" y="1049" width="420" height="50" as="geometry" />
        </mxCell>
        <mxCell id="3NQUQ22dUql_FlJT8KjB-8" value="検索履歴" style="text;html=1;align=center;verticalAlign=middle;whiteSpace=wrap;rounded=0;fontSize=32;" vertex="1" parent="1">
          <mxGeometry x="95" y="150" width="420" height="100" as="geometry" />
        </mxCell>
        <mxCell id="3NQUQ22dUql_FlJT8KjB-10" value="" style="endArrow=none;html=1;rounded=0;strokeWidth=2;" edge="1" parent="1">
          <mxGeometry width="50" height="50" relative="1" as="geometry">
            <mxPoint x="95" y="250" as="sourcePoint" />
            <mxPoint x="515" y="250" as="targetPoint" />
          </mxGeometry>
        </mxCell>
        <mxCell id="3NQUQ22dUql_FlJT8KjB-19" value="flutter" style="rounded=0;whiteSpace=wrap;html=1;fontSize=28;align=left;spacingLeft=12;strokeWidth=2;" vertex="1" parent="1">
          <mxGeometry x="120" y="280" width="370" height="60" as="geometry" />
        </mxCell>
        <mxCell id="3NQUQ22dUql_FlJT8KjB-20" value="" style="verticalLabelPosition=bottom;verticalAlign=top;html=1;shape=mxgraph.flowchart.or;strokeWidth=2;" vertex="1" parent="1">
          <mxGeometry x="430" y="290" width="40" height="40" as="geometry" />
        </mxCell>
        <mxCell id="3NQUQ22dUql_FlJT8KjB-21" value="dart" style="rounded=0;whiteSpace=wrap;html=1;fontSize=28;align=left;spacingLeft=12;strokeWidth=2;" vertex="1" parent="1">
          <mxGeometry x="120" y="365" width="370" height="60" as="geometry" />
        </mxCell>
        <mxCell id="3NQUQ22dUql_FlJT8KjB-22" value="jest" style="rounded=0;whiteSpace=wrap;html=1;fontSize=28;align=left;spacingLeft=12;strokeWidth=2;" vertex="1" parent="1">
          <mxGeometry x="120" y="450" width="370" height="60" as="geometry" />
        </mxCell>
        <mxCell id="3NQUQ22dUql_FlJT8KjB-23" value="riverpod" style="rounded=0;whiteSpace=wrap;html=1;fontSize=28;align=left;spacingLeft=12;strokeWidth=2;" vertex="1" parent="1">
          <mxGeometry x="120" y="535" width="370" height="60" as="geometry" />
        </mxCell>
        <mxCell id="3NQUQ22dUql_FlJT8KjB-24" value="freezed" style="rounded=0;whiteSpace=wrap;html=1;fontSize=28;align=left;spacingLeft=12;strokeWidth=2;" vertex="1" parent="1">
          <mxGeometry x="120" y="620" width="370" height="60" as="geometry" />
        </mxCell>
        <mxCell id="3NQUQ22dUql_FlJT8KjB-25" value="" style="verticalLabelPosition=bottom;verticalAlign=top;html=1;shape=mxgraph.flowchart.or;strokeWidth=2;" vertex="1" parent="1">
          <mxGeometry x="430" y="375" width="40" height="40" as="geometry" />
        </mxCell>
        <mxCell id="3NQUQ22dUql_FlJT8KjB-26" value="" style="verticalLabelPosition=bottom;verticalAlign=top;html=1;shape=mxgraph.flowchart.or;strokeWidth=2;" vertex="1" parent="1">
          <mxGeometry x="430" y="460" width="40" height="40" as="geometry" />
        </mxCell>
        <mxCell id="3NQUQ22dUql_FlJT8KjB-27" value="" style="verticalLabelPosition=bottom;verticalAlign=top;html=1;shape=mxgraph.flowchart.or;strokeWidth=2;" vertex="1" parent="1">
          <mxGeometry x="430" y="545" width="40" height="40" as="geometry" />
        </mxCell>
        <mxCell id="3NQUQ22dUql_FlJT8KjB-28" value="" style="verticalLabelPosition=bottom;verticalAlign=top;html=1;shape=mxgraph.flowchart.or;strokeWidth=2;" vertex="1" parent="1">
          <mxGeometry x="430" y="630" width="40" height="40" as="geometry" />
        </mxCell>
        <mxCell id="3NQUQ22dUql_FlJT8KjB-30" value="" style="rounded=0;whiteSpace=wrap;html=1;" vertex="1" parent="1">
          <mxGeometry x="530" y="140" width="1470" height="980" as="geometry" />
        </mxCell>
        <mxCell id="3NQUQ22dUql_FlJT8KjB-31" value="リポジトリ検索画面" style="text;html=1;align=center;verticalAlign=middle;whiteSpace=wrap;rounded=0;fontSize=56;" vertex="1" parent="1">
          <mxGeometry x="530" y="160" width="1470" height="80" as="geometry" />
        </mxCell>
        <mxCell id="3NQUQ22dUql_FlJT8KjB-32" value="" style="rounded=1;whiteSpace=wrap;html=1;fontSize=24;" vertex="1" parent="1">
          <mxGeometry x="962.5" y="250" width="605" height="60" as="geometry" />
        </mxCell>
        <mxCell id="3NQUQ22dUql_FlJT8KjB-38" value="" style="group" vertex="1" connectable="0" parent="1">
          <mxGeometry x="980" y="267" width="20" height="30" as="geometry" />
        </mxCell>
        <mxCell id="3NQUQ22dUql_FlJT8KjB-35" value="" style="endArrow=none;html=1;rounded=0;strokeWidth=5;" edge="1" parent="3NQUQ22dUql_FlJT8KjB-38">
          <mxGeometry width="50" height="50" relative="1" as="geometry">
            <mxPoint x="20" y="30" as="sourcePoint" />
            <mxPoint x="10" y="10" as="targetPoint" />
          </mxGeometry>
        </mxCell>
        <mxCell id="3NQUQ22dUql_FlJT8KjB-34" value="" style="ellipse;whiteSpace=wrap;html=1;aspect=fixed;rotation=-90;strokeWidth=5;" vertex="1" parent="3NQUQ22dUql_FlJT8KjB-38">
          <mxGeometry width="20" height="20" as="geometry" />
        </mxCell>
        <mxCell id="3NQUQ22dUql_FlJT8KjB-40" value="" style="verticalLabelPosition=bottom;verticalAlign=top;html=1;shape=mxgraph.flowchart.or;strokeWidth=4;" vertex="1" parent="1">
          <mxGeometry x="1520" y="267" width="30" height="30" as="geometry" />
        </mxCell>
        <mxCell id="3NQUQ22dUql_FlJT8KjB-42" value="Search Textfield" style="rounded=0;whiteSpace=wrap;html=1;strokeWidth=0;fontSize=24;" vertex="1" parent="1">
          <mxGeometry x="1030" y="252" width="470" height="58" as="geometry" />
        </mxCell>
        <mxCell id="RbmyN5pTn8aNILAV9D3_-1" value="&lt;font style=&quot;font-size: 28px;&quot;&gt;flutter&lt;/font&gt;" style="rounded=0;whiteSpace=wrap;html=1;align=left;spacingLeft=80;fontSize=24;flipV=1;" vertex="1" parent="1">
          <mxGeometry x="960" y="410" width="607.5" height="60" as="geometry" />
        </mxCell>
        <mxCell id="RbmyN5pTn8aNILAV9D3_-2" value="&lt;font style=&quot;font-size: 28px;&quot;&gt;flutter&lt;/font&gt;" style="rounded=0;whiteSpace=wrap;html=1;align=left;spacingLeft=80;fontSize=24;flipV=1;" vertex="1" parent="1">
          <mxGeometry x="960" y="573" width="607.5" height="60" as="geometry" />
        </mxCell>
        <mxCell id="RbmyN5pTn8aNILAV9D3_-3" value="&lt;font style=&quot;font-size: 28px;&quot;&gt;flutter&lt;/font&gt;" style="rounded=0;whiteSpace=wrap;html=1;align=left;spacingLeft=80;fontSize=24;flipV=1;" vertex="1" parent="1">
          <mxGeometry x="960" y="654" width="607.5" height="60" as="geometry" />
        </mxCell>
        <mxCell id="RbmyN5pTn8aNILAV9D3_-4" value="&lt;font style=&quot;font-size: 28px;&quot;&gt;flutter&lt;/font&gt;" style="rounded=0;whiteSpace=wrap;html=1;align=left;spacingLeft=80;fontSize=24;flipV=1;" vertex="1" parent="1">
          <mxGeometry x="960" y="899" width="607.5" height="60" as="geometry" />
        </mxCell>
        <mxCell id="RbmyN5pTn8aNILAV9D3_-5" value="&lt;font style=&quot;font-size: 28px;&quot;&gt;flutter&lt;/font&gt;" style="rounded=0;whiteSpace=wrap;html=1;align=left;spacingLeft=80;fontSize=24;flipV=1;" vertex="1" parent="1">
          <mxGeometry x="960" y="980" width="607.5" height="60" as="geometry" />
        </mxCell>
        <mxCell id="RbmyN5pTn8aNILAV9D3_-6" value="&lt;font style=&quot;font-size: 28px;&quot;&gt;flutter&lt;/font&gt;" style="rounded=0;whiteSpace=wrap;html=1;align=left;spacingLeft=80;fontSize=24;flipV=1;" vertex="1" parent="1">
          <mxGeometry x="960" y="817" width="607.5" height="60" as="geometry" />
        </mxCell>
        <mxCell id="RbmyN5pTn8aNILAV9D3_-7" value="&lt;font style=&quot;font-size: 28px;&quot;&gt;flutter&lt;/font&gt;" style="rounded=0;whiteSpace=wrap;html=1;align=left;spacingLeft=80;fontSize=24;flipV=1;" vertex="1" parent="1">
          <mxGeometry x="960" y="736" width="607.5" height="60" as="geometry" />
        </mxCell>
        <mxCell id="RbmyN5pTn8aNILAV9D3_-8" value="&lt;font style=&quot;font-size: 28px;&quot;&gt;flutter&lt;/font&gt;" style="rounded=0;whiteSpace=wrap;html=1;align=left;spacingLeft=80;fontSize=24;flipV=1;" vertex="1" parent="1">
          <mxGeometry x="960" y="491" width="607.5" height="60" as="geometry" />
        </mxCell>
        <mxCell id="RbmyN5pTn8aNILAV9D3_-9" value="&lt;font style=&quot;font-size: 28px;&quot;&gt;flutter&lt;/font&gt;" style="rounded=0;whiteSpace=wrap;html=1;align=left;spacingLeft=80;fontSize=24;" vertex="1" parent="1">
          <mxGeometry x="960" y="330" width="607.5" height="60" as="geometry" />
        </mxCell>
        <mxCell id="RbmyN5pTn8aNILAV9D3_-10" value="" style="group" vertex="1" connectable="0" parent="1">
          <mxGeometry x="980" y="340" width="570" height="40" as="geometry" />
        </mxCell>
        <mxCell id="RbmyN5pTn8aNILAV9D3_-11" value="" style="ellipse;whiteSpace=wrap;html=1;aspect=fixed;" vertex="1" parent="RbmyN5pTn8aNILAV9D3_-10">
          <mxGeometry width="40" height="40" as="geometry" />
        </mxCell>
        <mxCell id="RbmyN5pTn8aNILAV9D3_-12" value="" style="triangle;whiteSpace=wrap;html=1;" vertex="1" parent="RbmyN5pTn8aNILAV9D3_-10">
          <mxGeometry x="540" width="30" height="40" as="geometry" />
        </mxCell>
        <mxCell id="RbmyN5pTn8aNILAV9D3_-13" value="" style="group" vertex="1" connectable="0" parent="1">
          <mxGeometry x="978.75" y="420" width="570" height="40" as="geometry" />
        </mxCell>
        <mxCell id="RbmyN5pTn8aNILAV9D3_-14" value="" style="ellipse;whiteSpace=wrap;html=1;aspect=fixed;" vertex="1" parent="RbmyN5pTn8aNILAV9D3_-13">
          <mxGeometry width="40" height="40" as="geometry" />
        </mxCell>
        <mxCell id="RbmyN5pTn8aNILAV9D3_-15" value="" style="triangle;whiteSpace=wrap;html=1;" vertex="1" parent="RbmyN5pTn8aNILAV9D3_-13">
          <mxGeometry x="540" width="30" height="40" as="geometry" />
        </mxCell>
        <mxCell id="RbmyN5pTn8aNILAV9D3_-16" value="" style="group" vertex="1" connectable="0" parent="1">
          <mxGeometry x="978.75" y="501" width="570" height="40" as="geometry" />
        </mxCell>
        <mxCell id="RbmyN5pTn8aNILAV9D3_-17" value="" style="ellipse;whiteSpace=wrap;html=1;aspect=fixed;" vertex="1" parent="RbmyN5pTn8aNILAV9D3_-16">
          <mxGeometry width="40" height="40" as="geometry" />
        </mxCell>
        <mxCell id="RbmyN5pTn8aNILAV9D3_-18" value="" style="triangle;whiteSpace=wrap;html=1;" vertex="1" parent="RbmyN5pTn8aNILAV9D3_-16">
          <mxGeometry x="540" width="30" height="40" as="geometry" />
        </mxCell>
        <mxCell id="RbmyN5pTn8aNILAV9D3_-19" value="" style="group" vertex="1" connectable="0" parent="1">
          <mxGeometry x="978.75" y="583" width="570" height="40" as="geometry" />
        </mxCell>
        <mxCell id="RbmyN5pTn8aNILAV9D3_-20" value="" style="ellipse;whiteSpace=wrap;html=1;aspect=fixed;" vertex="1" parent="RbmyN5pTn8aNILAV9D3_-19">
          <mxGeometry width="40" height="40" as="geometry" />
        </mxCell>
        <mxCell id="RbmyN5pTn8aNILAV9D3_-21" value="" style="triangle;whiteSpace=wrap;html=1;" vertex="1" parent="RbmyN5pTn8aNILAV9D3_-19">
          <mxGeometry x="540" width="30" height="40" as="geometry" />
        </mxCell>
        <mxCell id="RbmyN5pTn8aNILAV9D3_-22" value="" style="group" vertex="1" connectable="0" parent="1">
          <mxGeometry x="978.75" y="664" width="570" height="40" as="geometry" />
        </mxCell>
        <mxCell id="RbmyN5pTn8aNILAV9D3_-23" value="" style="ellipse;whiteSpace=wrap;html=1;aspect=fixed;" vertex="1" parent="RbmyN5pTn8aNILAV9D3_-22">
          <mxGeometry width="40" height="40" as="geometry" />
        </mxCell>
        <mxCell id="RbmyN5pTn8aNILAV9D3_-24" value="" style="triangle;whiteSpace=wrap;html=1;" vertex="1" parent="RbmyN5pTn8aNILAV9D3_-22">
          <mxGeometry x="540" width="30" height="40" as="geometry" />
        </mxCell>
        <mxCell id="RbmyN5pTn8aNILAV9D3_-25" value="" style="group" vertex="1" connectable="0" parent="1">
          <mxGeometry x="978.75" y="746" width="570" height="40" as="geometry" />
        </mxCell>
        <mxCell id="RbmyN5pTn8aNILAV9D3_-26" value="" style="ellipse;whiteSpace=wrap;html=1;aspect=fixed;" vertex="1" parent="RbmyN5pTn8aNILAV9D3_-25">
          <mxGeometry width="40" height="40" as="geometry" />
        </mxCell>
        <mxCell id="RbmyN5pTn8aNILAV9D3_-27" value="" style="triangle;whiteSpace=wrap;html=1;" vertex="1" parent="RbmyN5pTn8aNILAV9D3_-25">
          <mxGeometry x="540" width="30" height="40" as="geometry" />
        </mxCell>
        <mxCell id="RbmyN5pTn8aNILAV9D3_-28" value="" style="group" vertex="1" connectable="0" parent="1">
          <mxGeometry x="978.75" y="827" width="570" height="40" as="geometry" />
        </mxCell>
        <mxCell id="RbmyN5pTn8aNILAV9D3_-29" value="" style="ellipse;whiteSpace=wrap;html=1;aspect=fixed;" vertex="1" parent="RbmyN5pTn8aNILAV9D3_-28">
          <mxGeometry width="40" height="40" as="geometry" />
        </mxCell>
        <mxCell id="RbmyN5pTn8aNILAV9D3_-30" value="" style="triangle;whiteSpace=wrap;html=1;" vertex="1" parent="RbmyN5pTn8aNILAV9D3_-28">
          <mxGeometry x="540" width="30" height="40" as="geometry" />
        </mxCell>
        <mxCell id="RbmyN5pTn8aNILAV9D3_-31" value="" style="group" vertex="1" connectable="0" parent="1">
          <mxGeometry x="978.75" y="909" width="570" height="40" as="geometry" />
        </mxCell>
        <mxCell id="RbmyN5pTn8aNILAV9D3_-32" value="" style="ellipse;whiteSpace=wrap;html=1;aspect=fixed;" vertex="1" parent="RbmyN5pTn8aNILAV9D3_-31">
          <mxGeometry width="40" height="40" as="geometry" />
        </mxCell>
        <mxCell id="RbmyN5pTn8aNILAV9D3_-33" value="" style="triangle;whiteSpace=wrap;html=1;" vertex="1" parent="RbmyN5pTn8aNILAV9D3_-31">
          <mxGeometry x="540" width="30" height="40" as="geometry" />
        </mxCell>
        <mxCell id="RbmyN5pTn8aNILAV9D3_-34" value="" style="group" vertex="1" connectable="0" parent="1">
          <mxGeometry x="978.75" y="990" width="570" height="40" as="geometry" />
        </mxCell>
        <mxCell id="RbmyN5pTn8aNILAV9D3_-35" value="" style="ellipse;whiteSpace=wrap;html=1;aspect=fixed;" vertex="1" parent="RbmyN5pTn8aNILAV9D3_-34">
          <mxGeometry width="40" height="40" as="geometry" />
        </mxCell>
        <mxCell id="RbmyN5pTn8aNILAV9D3_-36" value="" style="triangle;whiteSpace=wrap;html=1;" vertex="1" parent="RbmyN5pTn8aNILAV9D3_-34">
          <mxGeometry x="540" width="30" height="40" as="geometry" />
        </mxCell>
        <mxCell id="RbmyN5pTn8aNILAV9D3_-37" value="" style="endArrow=none;html=1;rounded=0;strokeWidth=2;" edge="1" parent="1">
          <mxGeometry width="50" height="50" relative="1" as="geometry">
            <mxPoint x="95" y="959" as="sourcePoint" />
            <mxPoint x="515" y="959" as="targetPoint" />
          </mxGeometry>
        </mxCell>
        <mxCell id="RbmyN5pTn8aNILAV9D3_-44" value="" style="group;strokeWidth=3;" vertex="1" connectable="0" parent="1">
          <mxGeometry x="490" y="190" width="20" height="20" as="geometry" />
        </mxCell>
        <mxCell id="RbmyN5pTn8aNILAV9D3_-45" value="" style="endArrow=none;html=1;rounded=0;strokeWidth=3;" edge="1" parent="RbmyN5pTn8aNILAV9D3_-44">
          <mxGeometry width="50" height="50" relative="1" as="geometry">
            <mxPoint y="20" as="sourcePoint" />
            <mxPoint x="20" y="10" as="targetPoint" />
          </mxGeometry>
        </mxCell>
        <mxCell id="RbmyN5pTn8aNILAV9D3_-46" value="" style="endArrow=none;html=1;rounded=0;strokeWidth=3;" edge="1" parent="RbmyN5pTn8aNILAV9D3_-44">
          <mxGeometry width="50" height="50" relative="1" as="geometry">
            <mxPoint as="sourcePoint" />
            <mxPoint x="20" y="9.999999999999545" as="targetPoint" />
          </mxGeometry>
        </mxCell>
      </root>
    </mxGraphModel>
  </diagram>
  <diagram id="2aM2A-6S-Wh7pI4XLxjm" name="詳細画面">
    <mxGraphModel dx="2646" dy="1490" grid="1" gridSize="10" guides="1" tooltips="1" connect="1" arrows="1" fold="1" page="1" pageScale="1" pageWidth="827" pageHeight="1169" math="0" shadow="0">
      <root>
        <mxCell id="0" />
        <mxCell id="1" parent="0" />
      </root>
    </mxGraphModel>
  </diagram>
  <diagram id="9eAIsCWrS4Yunl0qI4hi" name="comopnent">
    <mxGraphModel dx="1323" dy="745" grid="1" gridSize="10" guides="1" tooltips="1" connect="1" arrows="1" fold="1" page="1" pageScale="1" pageWidth="827" pageHeight="1169" math="0" shadow="0">
      <root>
        <mxCell id="0" />
        <mxCell id="1" parent="0" />
        <mxCell id="g_dIYOH2svpPy-2GZ2_I-1" value="&lt;font style=&quot;font-size: 28px;&quot;&gt;flutter&lt;/font&gt;" style="rounded=0;whiteSpace=wrap;html=1;fillColor=#fff2cc;strokeColor=#d6b656;align=left;spacingLeft=80;fontSize=24;flipV=1;" vertex="1" parent="1">
          <mxGeometry x="100" y="620" width="607.5" height="60" as="geometry" />
        </mxCell>
        <mxCell id="g_dIYOH2svpPy-2GZ2_I-2" value="&lt;font style=&quot;font-size: 28px;&quot;&gt;flutter&lt;/font&gt;" style="rounded=0;whiteSpace=wrap;html=1;fillColor=#fff2cc;strokeColor=#d6b656;align=left;spacingLeft=80;fontSize=24;flipV=1;" vertex="1" parent="1">
          <mxGeometry x="100" y="783" width="607.5" height="60" as="geometry" />
        </mxCell>
        <mxCell id="g_dIYOH2svpPy-2GZ2_I-3" value="&lt;font style=&quot;font-size: 28px;&quot;&gt;flutter&lt;/font&gt;" style="rounded=0;whiteSpace=wrap;html=1;fillColor=#fff2cc;strokeColor=#d6b656;align=left;spacingLeft=80;fontSize=24;flipV=1;" vertex="1" parent="1">
          <mxGeometry x="100" y="864" width="607.5" height="60" as="geometry" />
        </mxCell>
        <mxCell id="g_dIYOH2svpPy-2GZ2_I-4" value="&lt;font style=&quot;font-size: 28px;&quot;&gt;flutter&lt;/font&gt;" style="rounded=0;whiteSpace=wrap;html=1;fillColor=#fff2cc;strokeColor=#d6b656;align=left;spacingLeft=80;fontSize=24;flipV=1;" vertex="1" parent="1">
          <mxGeometry x="100" y="1109" width="607.5" height="60" as="geometry" />
        </mxCell>
        <mxCell id="g_dIYOH2svpPy-2GZ2_I-5" value="&lt;font style=&quot;font-size: 28px;&quot;&gt;flutter&lt;/font&gt;" style="rounded=0;whiteSpace=wrap;html=1;fillColor=#fff2cc;strokeColor=#d6b656;align=left;spacingLeft=80;fontSize=24;flipV=1;" vertex="1" parent="1">
          <mxGeometry x="100" y="1190" width="607.5" height="60" as="geometry" />
        </mxCell>
        <mxCell id="g_dIYOH2svpPy-2GZ2_I-6" value="&lt;font style=&quot;font-size: 28px;&quot;&gt;flutter&lt;/font&gt;" style="rounded=0;whiteSpace=wrap;html=1;fillColor=#fff2cc;strokeColor=#d6b656;align=left;spacingLeft=80;fontSize=24;flipV=1;" vertex="1" parent="1">
          <mxGeometry x="100" y="1027" width="607.5" height="60" as="geometry" />
        </mxCell>
        <mxCell id="g_dIYOH2svpPy-2GZ2_I-7" value="&lt;font style=&quot;font-size: 28px;&quot;&gt;flutter&lt;/font&gt;" style="rounded=0;whiteSpace=wrap;html=1;fillColor=#fff2cc;strokeColor=#d6b656;align=left;spacingLeft=80;fontSize=24;flipV=1;" vertex="1" parent="1">
          <mxGeometry x="100" y="946" width="607.5" height="60" as="geometry" />
        </mxCell>
        <mxCell id="g_dIYOH2svpPy-2GZ2_I-8" value="&lt;font style=&quot;font-size: 28px;&quot;&gt;flutter&lt;/font&gt;" style="rounded=0;whiteSpace=wrap;html=1;fillColor=#fff2cc;strokeColor=#d6b656;align=left;spacingLeft=80;fontSize=24;flipV=1;" vertex="1" parent="1">
          <mxGeometry x="100" y="701" width="607.5" height="60" as="geometry" />
        </mxCell>
        <mxCell id="g_dIYOH2svpPy-2GZ2_I-9" value="&lt;font style=&quot;font-size: 28px;&quot;&gt;flutter&lt;/font&gt;" style="rounded=0;whiteSpace=wrap;html=1;fillColor=#fff2cc;strokeColor=#d6b656;align=left;spacingLeft=80;fontSize=24;" vertex="1" parent="1">
          <mxGeometry x="100" y="540" width="607.5" height="60" as="geometry" />
        </mxCell>
        <mxCell id="g_dIYOH2svpPy-2GZ2_I-10" value="" style="group" vertex="1" connectable="0" parent="1">
          <mxGeometry x="120" y="550" width="570" height="40" as="geometry" />
        </mxCell>
        <mxCell id="g_dIYOH2svpPy-2GZ2_I-11" value="" style="ellipse;whiteSpace=wrap;html=1;aspect=fixed;fillColor=#f5f5f5;strokeColor=#666666;fontColor=#333333;" vertex="1" parent="g_dIYOH2svpPy-2GZ2_I-10">
          <mxGeometry width="40" height="40" as="geometry" />
        </mxCell>
        <mxCell id="g_dIYOH2svpPy-2GZ2_I-12" value="" style="triangle;whiteSpace=wrap;html=1;fillColor=#f8cecc;strokeColor=#b85450;" vertex="1" parent="g_dIYOH2svpPy-2GZ2_I-10">
          <mxGeometry x="540" width="30" height="40" as="geometry" />
        </mxCell>
        <mxCell id="g_dIYOH2svpPy-2GZ2_I-13" value="" style="group" vertex="1" connectable="0" parent="1">
          <mxGeometry x="118.75" y="630" width="570" height="40" as="geometry" />
        </mxCell>
        <mxCell id="g_dIYOH2svpPy-2GZ2_I-14" value="" style="ellipse;whiteSpace=wrap;html=1;aspect=fixed;fillColor=#f5f5f5;strokeColor=#666666;fontColor=#333333;" vertex="1" parent="g_dIYOH2svpPy-2GZ2_I-13">
          <mxGeometry width="40" height="40" as="geometry" />
        </mxCell>
        <mxCell id="g_dIYOH2svpPy-2GZ2_I-15" value="" style="triangle;whiteSpace=wrap;html=1;fillColor=#f8cecc;strokeColor=#b85450;" vertex="1" parent="g_dIYOH2svpPy-2GZ2_I-13">
          <mxGeometry x="540" width="30" height="40" as="geometry" />
        </mxCell>
        <mxCell id="g_dIYOH2svpPy-2GZ2_I-16" value="" style="group" vertex="1" connectable="0" parent="1">
          <mxGeometry x="118.75" y="711" width="570" height="40" as="geometry" />
        </mxCell>
        <mxCell id="g_dIYOH2svpPy-2GZ2_I-17" value="" style="ellipse;whiteSpace=wrap;html=1;aspect=fixed;fillColor=#f5f5f5;strokeColor=#666666;fontColor=#333333;" vertex="1" parent="g_dIYOH2svpPy-2GZ2_I-16">
          <mxGeometry width="40" height="40" as="geometry" />
        </mxCell>
        <mxCell id="g_dIYOH2svpPy-2GZ2_I-18" value="" style="triangle;whiteSpace=wrap;html=1;fillColor=#f8cecc;strokeColor=#b85450;" vertex="1" parent="g_dIYOH2svpPy-2GZ2_I-16">
          <mxGeometry x="540" width="30" height="40" as="geometry" />
        </mxCell>
        <mxCell id="g_dIYOH2svpPy-2GZ2_I-19" value="" style="group" vertex="1" connectable="0" parent="1">
          <mxGeometry x="118.75" y="793" width="570" height="40" as="geometry" />
        </mxCell>
        <mxCell id="g_dIYOH2svpPy-2GZ2_I-20" value="" style="ellipse;whiteSpace=wrap;html=1;aspect=fixed;fillColor=#f5f5f5;strokeColor=#666666;fontColor=#333333;" vertex="1" parent="g_dIYOH2svpPy-2GZ2_I-19">
          <mxGeometry width="40" height="40" as="geometry" />
        </mxCell>
        <mxCell id="g_dIYOH2svpPy-2GZ2_I-21" value="" style="triangle;whiteSpace=wrap;html=1;fillColor=#f8cecc;strokeColor=#b85450;" vertex="1" parent="g_dIYOH2svpPy-2GZ2_I-19">
          <mxGeometry x="540" width="30" height="40" as="geometry" />
        </mxCell>
        <mxCell id="g_dIYOH2svpPy-2GZ2_I-22" value="" style="group" vertex="1" connectable="0" parent="1">
          <mxGeometry x="118.75" y="874" width="570" height="40" as="geometry" />
        </mxCell>
        <mxCell id="g_dIYOH2svpPy-2GZ2_I-23" value="" style="ellipse;whiteSpace=wrap;html=1;aspect=fixed;fillColor=#f5f5f5;strokeColor=#666666;fontColor=#333333;" vertex="1" parent="g_dIYOH2svpPy-2GZ2_I-22">
          <mxGeometry width="40" height="40" as="geometry" />
        </mxCell>
        <mxCell id="g_dIYOH2svpPy-2GZ2_I-24" value="" style="triangle;whiteSpace=wrap;html=1;fillColor=#f8cecc;strokeColor=#b85450;" vertex="1" parent="g_dIYOH2svpPy-2GZ2_I-22">
          <mxGeometry x="540" width="30" height="40" as="geometry" />
        </mxCell>
        <mxCell id="g_dIYOH2svpPy-2GZ2_I-25" value="" style="group" vertex="1" connectable="0" parent="1">
          <mxGeometry x="118.75" y="956" width="570" height="40" as="geometry" />
        </mxCell>
        <mxCell id="g_dIYOH2svpPy-2GZ2_I-26" value="" style="ellipse;whiteSpace=wrap;html=1;aspect=fixed;fillColor=#f5f5f5;strokeColor=#666666;fontColor=#333333;" vertex="1" parent="g_dIYOH2svpPy-2GZ2_I-25">
          <mxGeometry width="40" height="40" as="geometry" />
        </mxCell>
        <mxCell id="g_dIYOH2svpPy-2GZ2_I-27" value="" style="triangle;whiteSpace=wrap;html=1;fillColor=#f8cecc;strokeColor=#b85450;" vertex="1" parent="g_dIYOH2svpPy-2GZ2_I-25">
          <mxGeometry x="540" width="30" height="40" as="geometry" />
        </mxCell>
        <mxCell id="g_dIYOH2svpPy-2GZ2_I-28" value="" style="group" vertex="1" connectable="0" parent="1">
          <mxGeometry x="118.75" y="1037" width="570" height="40" as="geometry" />
        </mxCell>
        <mxCell id="g_dIYOH2svpPy-2GZ2_I-29" value="" style="ellipse;whiteSpace=wrap;html=1;aspect=fixed;fillColor=#f5f5f5;strokeColor=#666666;fontColor=#333333;" vertex="1" parent="g_dIYOH2svpPy-2GZ2_I-28">
          <mxGeometry width="40" height="40" as="geometry" />
        </mxCell>
        <mxCell id="g_dIYOH2svpPy-2GZ2_I-30" value="" style="triangle;whiteSpace=wrap;html=1;fillColor=#f8cecc;strokeColor=#b85450;" vertex="1" parent="g_dIYOH2svpPy-2GZ2_I-28">
          <mxGeometry x="540" width="30" height="40" as="geometry" />
        </mxCell>
        <mxCell id="g_dIYOH2svpPy-2GZ2_I-31" value="" style="group" vertex="1" connectable="0" parent="1">
          <mxGeometry x="118.75" y="1119" width="570" height="40" as="geometry" />
        </mxCell>
        <mxCell id="g_dIYOH2svpPy-2GZ2_I-32" value="" style="ellipse;whiteSpace=wrap;html=1;aspect=fixed;fillColor=#f5f5f5;strokeColor=#666666;fontColor=#333333;" vertex="1" parent="g_dIYOH2svpPy-2GZ2_I-31">
          <mxGeometry width="40" height="40" as="geometry" />
        </mxCell>
        <mxCell id="g_dIYOH2svpPy-2GZ2_I-33" value="" style="triangle;whiteSpace=wrap;html=1;fillColor=#f8cecc;strokeColor=#b85450;" vertex="1" parent="g_dIYOH2svpPy-2GZ2_I-31">
          <mxGeometry x="540" width="30" height="40" as="geometry" />
        </mxCell>
        <mxCell id="g_dIYOH2svpPy-2GZ2_I-34" value="" style="group" vertex="1" connectable="0" parent="1">
          <mxGeometry x="118.75" y="1200" width="570" height="40" as="geometry" />
        </mxCell>
        <mxCell id="g_dIYOH2svpPy-2GZ2_I-35" value="" style="ellipse;whiteSpace=wrap;html=1;aspect=fixed;fillColor=#f5f5f5;strokeColor=#666666;fontColor=#333333;" vertex="1" parent="g_dIYOH2svpPy-2GZ2_I-34">
          <mxGeometry width="40" height="40" as="geometry" />
        </mxCell>
        <mxCell id="g_dIYOH2svpPy-2GZ2_I-36" value="" style="triangle;whiteSpace=wrap;html=1;fillColor=#f8cecc;strokeColor=#b85450;" vertex="1" parent="g_dIYOH2svpPy-2GZ2_I-34">
          <mxGeometry x="540" width="30" height="40" as="geometry" />
        </mxCell>
      </root>
    </mxGraphModel>
  </diagram>
</mxfile>
